<svg width="106" height="16" viewBox="0 0 106 16" fill="none" xmlns="http://www.w3.org/2000/svg">
<g clip-path="url(#clip0_17527_1205)">
<path d="M105.863 0H0V16H105.863V0Z" fill="url(#paint0_linear_17527_1205)"/>
<path d="M94.9883 13.0137H91.61L94.3527 2.73881H97.727L96.1198 8.7638L99.5021 5.85326H103.544L99.778 9.03567L102.405 13.0137H98.1388L95.9519 9.40348L94.9883 13.0137ZM80.5396 13.0137L82.1308 7.04866C82.1947 6.80878 82.2427 6.58489 82.2747 6.38099C82.3067 6.1771 82.3227 6.00118 82.3227 5.85326H85.749C85.765 5.9652 85.753 6.11313 85.725 6.29304C85.697 6.47695 85.641 6.71283 85.5651 7.00868C86.1168 6.55691 86.6685 6.22507 87.2202 6.00918C87.776 5.78929 88.3517 5.68134 88.9594 5.68134C90.0708 5.68134 90.8424 5.95721 91.2742 6.51293C91.706 7.06465 91.782 7.87225 91.4981 8.93572L90.4066 13.0177H86.9884L88.0518 9.03966C88.1998 8.49194 88.1957 8.09214 88.0438 7.84426C87.8879 7.59639 87.5801 7.46845 87.1043 7.46845C86.5486 7.46845 86.0928 7.63637 85.725 7.9722C85.3612 8.30803 85.0893 8.80778 84.9094 9.48744L83.9659 13.0257H80.5476L80.5396 13.0137ZM76.3177 11.9502C75.8819 12.366 75.3742 12.6698 74.8024 12.8697C74.2267 13.0696 73.5711 13.1696 72.8274 13.1696C71.772 13.1696 71.0083 12.9897 70.5366 12.6299C70.0608 12.2661 69.9129 11.7543 70.0928 11.0906C70.3327 10.1871 71.0003 9.53142 72.0878 9.13162C73.1753 8.72782 74.8744 8.51992 77.1852 8.50393C77.1892 8.48794 77.1972 8.46395 77.2132 8.42397C77.2292 8.38399 77.2412 8.35601 77.2452 8.33602C77.3452 7.9682 77.3012 7.69634 77.1213 7.51243C76.9414 7.33252 76.6215 7.24456 76.1618 7.24456C75.746 7.24456 75.4101 7.30853 75.1543 7.44046C74.8944 7.5724 74.7105 7.7723 74.5985 8.03617H71.4321C71.66 7.24456 72.2077 6.65286 73.0753 6.26505C73.9429 5.87725 75.1663 5.68134 76.7375 5.68134C78.3087 5.68134 79.3082 5.90923 79.9239 6.361C80.5396 6.81278 80.7235 7.50443 80.4756 8.42797L79.5041 12.0741C79.4441 12.302 79.4041 12.4859 79.3882 12.6259C79.3722 12.7618 79.3762 12.8937 79.3961 13.0177H76.2137C76.1937 12.8458 76.1977 12.6738 76.2137 12.4979C76.2297 12.322 76.2617 12.1421 76.3137 11.9542M76.7895 9.90723C75.682 9.90723 74.9064 9.9752 74.4666 10.1151C74.0268 10.2551 73.763 10.4989 73.667 10.8468C73.603 11.0826 73.655 11.2666 73.8109 11.3985C73.9709 11.5304 74.2307 11.5944 74.5865 11.5944C75.1663 11.5944 75.642 11.4665 76.0058 11.2026C76.3657 10.9387 76.6175 10.5429 76.7575 10.0152L76.7854 9.90323L76.7895 9.90723ZM58.2987 13.0137L61.0413 2.73881H67.65C68.4376 2.73881 69.0013 2.7708 69.3452 2.83477C69.693 2.89474 69.9809 2.99869 70.2167 3.14261C70.5366 3.33452 70.7445 3.61038 70.8484 3.9662C70.9484 4.31803 70.9364 4.73382 70.8084 5.21358C70.6525 5.79329 70.3567 6.26905 69.9089 6.64086C69.4651 7.01268 68.8374 7.30853 68.0338 7.52442C68.8774 7.72832 69.4531 8.04816 69.741 8.47994C70.0328 8.91173 70.0768 9.49943 69.8809 10.2351C69.637 11.1466 69.1733 11.8383 68.4856 12.31C67.798 12.7818 66.9064 13.0177 65.8069 13.0177H58.2987V13.0137ZM62.9204 8.67585L62.3167 10.9307H64.4796C64.9913 10.9307 65.4031 10.8388 65.719 10.6469C66.0348 10.459 66.2387 10.1751 66.3387 9.80328C66.4386 9.43147 66.3827 9.15161 66.1748 8.9597C65.9629 8.7678 65.603 8.67585 65.0833 8.67585H62.9204ZM63.9479 4.82177L63.3762 6.9647H65.2552C65.715 6.9647 66.0788 6.87275 66.3547 6.69684C66.6305 6.51693 66.8144 6.24906 66.9104 5.88924C67.0063 5.53742 66.9624 5.26955 66.7825 5.08964C66.5985 4.90973 66.2827 4.81778 65.8309 4.81778H63.9519L63.9479 4.82177ZM49.751 13.0137L52.4936 2.73881H56.1398L53.3971 13.0137H49.751ZM46.5686 6.04916C46.6045 5.55341 46.4886 5.18159 46.2127 4.92572C45.9409 4.67785 45.5131 4.54991 44.9334 4.54991C44.0058 4.54991 43.2222 4.83377 42.5706 5.39749C41.9229 5.9612 41.4591 6.7608 41.1833 7.80428C40.9154 8.80778 40.9554 9.57939 41.3032 10.1151C41.651 10.6549 42.2787 10.9227 43.1943 10.9227C43.8619 10.9227 44.4376 10.7708 44.9214 10.459C45.4011 10.1511 45.769 9.69933 46.0248 9.09963H49.7989C49.3032 10.443 48.4556 11.4385 47.2522 12.0821C46.0488 12.7218 44.4176 13.0417 42.3667 13.0417C40.3157 13.0417 38.9604 12.5939 38.0928 11.6983C37.2252 10.8028 37.0093 9.54741 37.4371 7.94021C37.9049 6.18109 38.8404 4.82177 40.2357 3.87025C41.631 2.91473 43.3941 2.43896 45.5051 2.43896C47.3402 2.43896 48.6635 2.74281 49.4751 3.34651C50.2827 3.95421 50.5706 4.85376 50.3347 6.04916H46.5766H46.5686ZM31.3362 13.0137L34.0788 2.73881H37.725L34.9824 13.0137H31.3362ZM28.1538 6.04916C28.1898 5.55341 28.0738 5.18159 27.7979 4.92572C27.5221 4.67785 27.0983 4.54991 26.5186 4.54991C25.5951 4.54991 24.8074 4.83377 24.1558 5.39749C23.5081 5.9612 23.0443 6.7608 22.7645 7.80428C22.4966 8.80778 22.5366 9.57939 22.8844 10.1151C23.2322 10.6549 23.8599 10.9227 24.7715 10.9227C25.4391 10.9227 26.0148 10.7708 26.4986 10.459C26.9784 10.1511 27.3462 9.69933 27.602 9.09963H31.3762C30.8804 10.443 30.0288 11.4385 28.8254 12.0821C27.622 12.7218 25.9909 13.0417 23.9399 13.0417C21.8889 13.0417 20.5336 12.5939 19.666 11.6983C18.7984 10.8028 18.5786 9.54741 19.0103 7.94021C19.4821 6.18109 20.4136 4.82177 21.8089 3.87025C23.2042 2.91473 24.9634 2.43896 27.0783 2.43896C28.9134 2.43896 30.2367 2.74281 31.0483 3.34651C31.8559 3.95421 32.1438 4.85376 31.9079 6.04916H28.1498H28.1538ZM12.9214 13.0137L15.664 2.73881H19.3102L16.5676 13.0137H12.9214Z" fill="white"/>
<path fill-rule="evenodd" clip-rule="evenodd" d="M6.10482 4.96963C8.44765 2.62681 11.2622 2.02311 12.3937 3.62631C13.5251 5.22551 12.5416 8.42391 10.1988 10.7707C7.85594 13.1136 5.03735 13.7173 3.90991 12.1141C2.77848 10.5109 3.76199 7.31246 6.10881 4.96963" fill="#EF7F1A"/>
<path fill-rule="evenodd" clip-rule="evenodd" d="M7.65235 3.72256C7.40048 3.91446 7.13261 4.13435 6.88074 4.39022C4.83376 6.4252 3.98219 9.2238 4.98968 10.6231C6.02916 12.0224 8.5519 11.5147 10.6309 9.44769C11.7503 8.35224 12.5059 7.06089 12.8218 5.86948C12.9177 4.99392 12.7898 4.21831 12.398 3.6266C11.5024 2.38722 9.57939 2.48317 7.65635 3.72256" fill="#97291E"/>
<path fill-rule="evenodd" clip-rule="evenodd" d="M10.4589 3.6462C10.7307 3.92206 10.5668 4.52176 10.103 4.99752C9.63528 5.46529 9.02758 5.63321 8.75971 5.36134C8.47985 5.08948 8.64377 4.48178 9.11154 4.00202C9.5833 3.52626 10.195 3.37833 10.4589 3.6462ZM8.81169 11.9181C7.71624 12.7496 6.5888 13.1574 5.48535 12.9855C5.94912 13.0095 6.32093 12.4898 6.62878 11.7941C6.94062 11.0825 7.12853 10.4188 7.27646 9.79912C7.49235 8.81961 7.50834 8.11996 7.40039 7.96804C7.21249 7.72016 6.7887 7.78413 6.30894 8.06399C6.07706 8.19193 5.76921 8.10797 6.13303 7.66419C6.50084 7.21641 7.95612 6.14495 8.47985 5.97703C9.05557 5.80912 9.71124 6.037 9.48735 6.67269C9.33143 7.13645 7.31644 12.4698 8.81569 11.9141" fill="white"/>
</g>
<defs>
<linearGradient id="paint0_linear_17527_1205" x1="52.9295" y1="15.0565" x2="52.9295" y2="0.915542" gradientUnits="userSpaceOnUse">
<stop stop-color="#BE2A2A"/>
<stop offset="1" stop-color="#EF7F1A"/>
</linearGradient>
<clipPath id="clip0_17527_1205">
<rect width="105.863" height="16" fill="white"/>
</clipPath>
</defs>
</svg>
